<svg width="32" height="22" viewBox="0 0 32 22" fill="none" xmlns="http://www.w3.org/2000/svg">
<path d="M30.0875 9.25H1.9125C0.994327 9.25 0.25 9.99433 0.25 10.9125V11.0875C0.25 12.0057 0.994327 12.75 1.9125 12.75H30.0875C31.0057 12.75 31.75 12.0057 31.75 11.0875V10.9125C31.75 9.99433 31.0057 9.25 30.0875 9.25Z" fill="white"/>
<path d="M30.0875 18H1.9125C0.994327 18 0.25 18.7443 0.25 19.6625V19.8375C0.25 20.7557 0.994327 21.5 1.9125 21.5H30.0875C31.0057 21.5 31.75 20.7557 31.75 19.8375V19.6625C31.75 18.7443 31.0057 18 30.0875 18Z" fill="white"/>
<path d="M30.0875 0.5H1.9125C0.994327 0.5 0.25 1.24433 0.25 2.1625V2.3375C0.25 3.25567 0.994327 4 1.9125 4H30.0875C31.0057 4 31.75 3.25567 31.75 2.3375V2.1625C31.75 1.24433 31.0057 0.5 30.0875 0.5Z" fill="white"/>
</svg>
