<svg width="42" height="42" viewBox="0 0 42 42" fill="none" xmlns="http://www.w3.org/2000/svg">
<path d="M32.0254 9.99289C31.8635 9.83066 31.6712 9.70195 31.4595 9.61413C31.2478 9.52632 31.0208 9.48111 30.7916 9.48111C30.5624 9.48111 30.3355 9.52632 30.1238 9.61413C29.9121 9.70195 29.7198 9.83066 29.5579 9.99289L21.0004 18.5329L12.4429 9.97539C12.2809 9.81337 12.0885 9.68485 11.8768 9.59717C11.6652 9.50949 11.4383 9.46436 11.2091 9.46436C10.98 9.46436 10.7531 9.50949 10.5414 9.59717C10.3298 9.68485 10.1374 9.81337 9.97539 9.97539C9.81337 10.1374 9.68485 10.3298 9.59717 10.5414C9.50949 10.7531 9.46436 10.98 9.46436 11.2091C9.46436 11.4383 9.50949 11.6652 9.59717 11.8768C9.68485 12.0885 9.81337 12.2809 9.97539 12.4429L18.5329 21.0004L9.97539 29.5579C9.81337 29.7199 9.68485 29.9123 9.59717 30.1239C9.50949 30.3356 9.46436 30.5625 9.46436 30.7916C9.46436 31.0208 9.50949 31.2477 9.59717 31.4593C9.68485 31.671 9.81337 31.8634 9.97539 32.0254C10.1374 32.1874 10.3298 32.3159 10.5414 32.4036C10.7531 32.4913 10.98 32.5364 11.2091 32.5364C11.4383 32.5364 11.6652 32.4913 11.8768 32.4036C12.0885 32.3159 12.2809 32.1874 12.4429 32.0254L21.0004 23.4679L29.5579 32.0254C29.7199 32.1874 29.9123 32.3159 30.1239 32.4036C30.3356 32.4913 30.5625 32.5364 30.7916 32.5364C31.0208 32.5364 31.2477 32.4913 31.4593 32.4036C31.671 32.3159 31.8634 32.1874 32.0254 32.0254C32.1874 31.8634 32.3159 31.671 32.4036 31.4593C32.4913 31.2477 32.5364 31.0208 32.5364 30.7916C32.5364 30.5625 32.4913 30.3356 32.4036 30.1239C32.3159 29.9123 32.1874 29.7199 32.0254 29.5579L23.4679 21.0004L32.0254 12.4429C32.6904 11.7779 32.6904 10.6579 32.0254 9.99289Z" fill="white"/>
</svg>
