<svg width="19" height="15" viewBox="0 0 19 15" fill="none" xmlns="http://www.w3.org/2000/svg">
<path d="M19 4.45072V12.1843C19 13.5213 17.825 14.6048 16.375 14.6048H2.625C1.92881 14.6048 1.26113 14.3497 0.768845 13.8958C0.276562 13.4419 0 12.8262 0 12.1843V4.45072L9.199 9.11649C9.3865 9.21147 9.614 9.21147 9.801 9.11649L19 4.45026V4.45072ZM16.375 0.773438C17.0602 0.773496 17.7183 1.02063 18.2086 1.46204C18.6989 1.90346 18.9826 2.50416 18.999 3.13583L9.5 7.95374L0.000999928 3.13537L0.00200009 3.09387C0.0300014 2.46974 0.318603 1.87975 0.807455 1.44729C1.29631 1.01483 1.94755 0.77338 2.625 0.773438H16.375Z" fill="#009EE2" fill-opacity="0.7"/>
</svg>
