<svg width="19" height="15" viewBox="0 0 19 15" fill="none" xmlns="http://www.w3.org/2000/svg">
<path d="M19 4.49557V12.3234C19 13.6768 17.825 14.7734 16.375 14.7734H2.625C1.92881 14.7734 1.26113 14.5153 0.768845 14.0558C0.276562 13.5964 0 12.9732 0 12.3234V4.49557L9.199 9.21824C9.3865 9.31437 9.614 9.31437 9.801 9.21824L19 4.4951V4.49557ZM16.375 0.773438C17.0602 0.773497 17.7183 1.02364 18.2086 1.47044C18.6989 1.91724 18.9826 2.52526 18.999 3.16464L9.5 8.0413L0.000999928 3.16417L0.00200009 3.12217C0.0300014 2.49042 0.318603 1.89324 0.807455 1.45551C1.29631 1.01777 1.94755 0.773379 2.625 0.773438H16.375Z" fill="black" fill-opacity="0.7"/>
</svg>
