<svg width="21" height="20" viewBox="0 0 21 20" fill="none" xmlns="http://www.w3.org/2000/svg">
<path d="M12.8757 13.425L14.2757 12.025C14.4643 11.8388 14.7028 11.7113 14.9625 11.6581C15.2221 11.6048 15.4916 11.6281 15.7382 11.725L17.4445 12.4063C17.6937 12.5074 17.9074 12.6801 18.0587 12.9026C18.21 13.125 18.292 13.3873 18.2945 13.6563V16.7813C18.293 16.9643 18.2545 17.1451 18.1814 17.3128C18.1082 17.4805 18.0019 17.6317 17.8687 17.7573C17.7356 17.8828 17.5784 17.9801 17.4067 18.0433C17.235 18.1065 17.0522 18.1343 16.8695 18.125C4.91321 17.3813 2.50071 7.25627 2.04446 3.38128C2.02328 3.19099 2.04263 2.99837 2.10124 2.81609C2.15984 2.63382 2.25638 2.46602 2.3845 2.32374C2.51261 2.18145 2.6694 2.0679 2.84455 1.99057C3.0197 1.91323 3.20925 1.87385 3.40071 1.87503H6.41946C6.68884 1.87582 6.95182 1.95719 7.17458 2.10867C7.39734 2.26015 7.56969 2.4748 7.66946 2.72503L8.35071 4.43128C8.45086 4.67694 8.47642 4.94668 8.42417 5.20678C8.37193 5.46689 8.24421 5.70584 8.05696 5.89378L6.65696 7.29378C6.65696 7.29378 7.46321 12.75 12.8757 13.425Z" fill="black"/>
</svg>
